P1
# bitmap avion vers la gauche
6 7
0 0 0 0 0 0
0 0 1 0 0 0
0 1 0 0 0 1
1 1 1 1 1 1
0 1 0 0 0 0
0 0 1 0 0 0
0 0 0 0 0 0
