P1
# bitmap de la fusée
15 22
0 0 0 0 0 0 0 0 0 0 0 0 0 0 0
0 0 0 0 0 0 0 1 0 0 0 0 0 0 0
0 0 0 0 0 1 1 0 1 1 0 0 0 0 0
0 0 0 0 1 1 0 1 0 1 1 0 0 0 0
0 0 0 1 1 0 0 1 0 0 1 1 0 0 0
0 0 1 1 0 0 1 0 1 0 0 1 1 0 0
0 0 1 1 0 1 0 0 0 1 0 1 1 0 0
0 0 1 1 0 1 1 0 1 1 0 1 1 0 0
0 0 1 1 0 0 1 0 1 0 0 1 1 0 0
0 0 1 1 0 0 0 1 0 0 0 1 1 0 0
0 0 1 1 0 0 0 0 0 0 0 1 1 0 0
0 0 1 1 0 0 0 0 0 0 0 1 1 0 0
0 0 1 1 0 0 0 0 0 0 0 1 1 0 0
0 1 1 1 0 0 0 1 0 0 0 1 1 1 0
1 1 0 1 0 0 1 1 1 0 0 1 0 1 1
1 0 0 1 0 0 1 0 1 0 0 1 0 0 1
1 0 0 1 0 0 1 0 1 0 0 1 0 0 1
1 0 0 1 0 0 1 0 1 0 0 1 0 0 1
1 0 1 1 1 1 1 0 1 1 1 1 1 0 1
1 1 0 0 0 0 1 1 1 0 0 0 0 1 1
1 0 0 0 0 0 0 1 0 0 0 0 0 0 1
0 0 0 0 0 0 0 0 0 0 0 0 0 0 0
