P1
# bitmap d'un zero
11 13
0 0 0 0 0 0 0 0 0 0 0
0 0 0 0 1 1 1 0 0 0 0
0 0 0 1 0 0 0 1 0 0 0
0 0 1 0 0 0 0 0 1 0 0
0 1 0 0 0 0 0 0 0 1 0
1 0 0 0 1 1 1 0 0 0 1
1 0 0 0 1 0 1 0 0 0 1
1 0 0 0 1 1 1 0 0 0 1
0 1 0 0 0 0 0 0 0 1 0
0 0 1 0 0 0 0 0 1 0 0
0 0 0 1 0 0 0 1 0 0 0
0 0 0 0 1 1 1 0 0 0 0
0 0 0 0 0 0 0 0 0 0 0
