P1
# bitmap 4
3 5
1 0 1
1 0 1
1 1 1
0 0 1
0 0 1
