P1
# bitmap d'un avion vers la droite
6 5
0 0 0 1 0 0
1 0 0 0 1 0
1 1 1 1 1 1
0 0 0 0 1 0
0 0 0 1 0 0
